<svg width="24" height="24" viewBox="0 0 14 14" xmlns="http://www.w3.org/2000/svg"
    class="search-header__close-icon">
    <path
        d="M7 14c3.83 0 7-3.177 7-7 0-3.83-3.177-7-7.007-7C3.171 0 0 3.17 0 7c0 3.823 3.177 7 7 7ZM4.694 9.882a.562.562 0 0 1-.563-.57c0-.15.055-.294.165-.397l1.901-1.908-1.9-1.901a.55.55 0 0 1-.166-.398c0-.323.247-.563.563-.563.158 0 .281.055.391.158L7 6.21l1.928-1.915a.52.52 0 0 1 .392-.165c.315 0 .57.247.57.563a.53.53 0 0 1-.172.405L7.81 7.007l1.9 1.9a.524.524 0 0 1 .172.406.57.57 0 0 1-.576.57.543.543 0 0 1-.405-.165L7 7.81 5.106 9.718a.57.57 0 0 1-.412.164Z"></path>
</svg>