<svg xmlns="http://www.w3.org/2000/svg" xml:space="preserve" viewBox="0 0 467 67"><path d="M106 68H1.021858V1.035805h466.845116V68c-114.554382 0-229.24202 0-344.694718-.335648-.119064-.774353.486351-1.511505 1.179184-1.60572 7.167252-.974541 11.911866-5.339523 16.055069-10.859177 5.820893-7.754692 6.49202-16.785637 5.355408-25.632007-1.107605-8.620726-4.477127-16.690708-12.494797-21.854928-8.548027-5.505833-17.856056-5.528279-27.319534-4.114404-6.010231.897949-10.956413 4.029931-14.988907 8.645293-6.755943 7.732444-8.937858 16.948388-7.851951 26.766948 1.410514 12.753712 6.069625 22.725658 21.457069 27.061779.611282.172249.963356 1.264351 1.436203 1.927864M73 40.690842c-.66713-8.500828-1.285484-17.005831-2.013336-25.501455-.981598-11.457448-1.024132-11.589632-12.580097-11.046342-1.773049.083359-4.265026 1.671873-5.047181 3.247835-4.34872 8.762219-8.250553 17.745526-12.369533 26.623379-.509411 1.097966-1.400631 2.018784-2.328869 3.322075-5.121677-11.494768-9.952854-22.337549-14.68899-32.967029H7.663634C6.156529 25.080894 4.674198 45.452038 3.203962 65.656952h16.428772V33.174965c.516062-.21402 1.032124-.428036 1.548184-.642056.931316 1.148167 2.177198 2.161251 2.738472 3.468319 2.209734 5.145932 4.518482 10.285683 6.191002 15.615837 1.704757 5.4329 4.963274 7.439534 10.398588 6.399628.64294-.123012 1.448002.209648 1.971847-.063747 1.139225-.59457 2.677159-1.211621 3.120957-2.22662 3.268368-7.475033 6.271801-15.065479 9.46421-22.574707.393261-.925034 1.409714-1.585133 2.57008-2.833532.570873 12.550001 1.094036 24.051092 1.608536 35.361768h14.911724C73.760178 57.446251 73.380089 49.5467 73 40.690842M173.949661 9.421128c-3.894546-8.659376-11.425247-4.429919-17.743698-5.498693v61.873898h14.726715V29.286552c1.786118 1.055552 3.291016 1.440869 3.93454 2.402579 7.069458 10.564783 13.975281 21.238966 21.022354 31.818956.698303 1.048401 1.99086 2.296684 3.086731 2.377358 3.913818.288154 7.86174.112762 11.773041.112762V4.248528h-16.013718V35.92318c-7.237579-9.259385-13.76419-17.609209-20.785965-26.502052m291.672074 56.574966c-.197358-1.227799-.03888-2.679322-.648011-3.648278-5.217559-8.299892-10.19342-16.798561-16.069152-24.615715-2.485871-3.307235-2.248841-5.088417-.176972-8.057979C454.550781 21.327873 460.1073 12.795581 465.994324 4c-3.172943 0-5.731812.357659-8.153443-.067107-7.244629-1.270737-12.143768 1.296195-15.355316 7.943357-1.306915 2.704993-3.623169 4.922328-5.786285 7.763644-3.772186-5.725634-5.813843-12.084231-10.051483-14.367847-4.513947-2.432522-11.105317-1.014279-16.790436-1.260844-.447266-.019399-.900116.089926-1.910095.200962 4.810302 7.548353 9.413757 14.842303 14.088714 22.090127 5.718231 8.865208 5.472809 8.647522-.79306 17.108997-5.219238 7.048142-9.703003 14.64093-14.757843 22.367428h17.636902c3.162048-4.736374 5.870392-9.131077 8.921631-13.273144 3.389709-4.601497 4.849029-4.517383 7.905182.299465 2.664703 4.199875 5.068695 8.565144 7.785888 13.194725 5.065003 0 10.550141 0 16.887055-.003669M322.345123 4.000018h-39.009124v61.660901h15.94635V39.717056h23.372802V27.712053H299.34848V15.705296h26.651276c0-3.225653.238037-6.085143-.123047-8.866856-.134918-1.039401-1.666962-1.89744-3.531586-2.838422M222.44928 14.959039c3.716507 6.38136 7.085937 13.000874 11.252685 19.073291 3.741562 5.452796 6.088135 10.890922 5.390946 17.670017C238.609741 56.400318 239 61.188118 239 65.652687h16c0-7.165489-.047379-13.984554.039276-20.801914.0177-1.392948.20752-2.972592.885697-4.134964 2.671218-4.57848 5.725143-8.935885 8.347122-13.540413 4.296539-7.545177 8.366974-15.21909 12.644226-23.042565h-17.147827c-3.940888 8.047687-7.363678 15.999217-13.162018 23.341698-3.788056-7.627634-6.953217-14.280332-10.43309-20.764099-.667679-1.244002-2.529572-2.499998-3.914612-2.588297-4.906159-.312777-9.844406-.121913-15.125183-.121913 1.751922 3.691995 3.32431 7.005657 5.315689 10.958819M350 24.500164V4.288737h-15.714294v61.428258h42.427673V53.823177H350V24.500164m50-8.983013V4.284397h-14.717651v61.430172H400V15.517151z"/><path fill="#FFF" d="M106.467606 68c-.940453-.663513-1.292527-1.755615-1.903809-1.927864-15.387444-4.336121-20.046555-14.308067-21.457069-27.061779-1.085907-9.81856 1.096008-19.034504 7.851951-26.766948 4.032494-4.615362 8.978676-7.747344 14.988907-8.645293 9.463478-1.413875 18.771507-1.391429 27.319534 4.114404 8.01767 5.16422 11.387192 13.234202 12.494797 21.854928 1.136612 8.84637.465485 17.877315-5.355408 25.632007-4.143203 5.519654-8.887817 9.884636-16.055069 10.859177-.692833.094215-1.298248.831367-1.647842 1.60572C117.645073 68 112.290138 68 106.467606 68m17.120353-16.959637c.775093-.542713 1.829315-.914543 2.282296-1.654457 4.758712-7.77301 5.504943-15.836593 2.217788-24.47586-2.851753-7.494921-13.389473-12.521631-21.270454-7.263226-5.948273 3.968849-10.572441 15.37693-6.119026 26.695297 3.857917 9.804947 13.743171 13.228867 22.889396 6.698246zM73 41.168995c.380089 8.377705.760178 16.277256 1.156334 24.51086H59.24461c-.5145-11.310676-1.037663-22.811767-1.608536-35.361768-1.160366 1.248399-2.176819 1.908498-2.57008 2.833532-3.192409 7.509228-6.195842 15.099674-9.46421 22.574707-.443798 1.014999-1.981732 1.63205-3.120957 2.22662-.523845.273395-1.328907-.059265-1.971847.063747-5.435314 1.039906-8.693831-.966728-10.398588-6.399628-1.67252-5.330154-3.981268-10.469905-6.191002-15.615837-.561274-1.307068-1.807156-2.320152-2.738472-3.468319-.51606.21402-1.032122.428036-1.548184.642056v32.481987H3.203962C4.674198 45.452038 6.156529 25.080894 7.663634 4.369305h16.30836c4.736136 10.62948 9.567313 21.472261 14.68899 32.967029.928238-1.303291 1.819458-2.224109 2.328869-3.322075 4.11898-8.877853 8.020813-17.86116 12.369533-26.623379.782155-1.575962 3.274132-3.164476 5.047181-3.247835 11.555965-.54329 11.598499-.411106 12.580097 11.046342C71.714516 23.685011 72.33287 32.190014 73 41.168995zM174.197235 9.692636c6.774201 8.621335 13.300812 16.971159 20.538391 26.230544V4.248528h16.013718v61.749679c-3.911301 0-7.859223.175392-11.773041-.112762-1.095871-.080674-2.388428-1.328957-3.086731-2.377358-7.047073-10.57999-13.952896-21.254173-21.022354-31.818956-.643524-.96171-2.148422-1.347027-3.93454-2.402579v36.509781h-14.726715V3.922435c6.318451 1.068774 13.849152-3.160683 17.991272 5.770201zM465.195831 65.997925c-5.91101.001838-11.396148.001838-16.461151.001838-2.717193-4.629581-5.121185-8.99485-7.785888-13.194725-3.056153-4.816848-4.515473-4.900962-7.905182-.299465-3.051239 4.142067-5.759583 8.53677-8.921631 13.273144h-17.636902c5.05484-7.726498 9.538605-15.319286 14.757843-22.367428 6.265869-8.461475 6.511291-8.243789.79306-17.108997-4.674957-7.247824-9.278412-14.541774-14.088714-22.090127 1.009979-.111036 1.462829-.220361 1.910095-.200962 5.685119.246565 12.276489-1.171678 16.790436 1.260844 4.23764 2.283616 6.279297 8.642213 10.051483 14.367847 2.163116-2.841316 4.47937-5.058651 5.786285-7.763644 3.211548-6.647162 8.110687-9.214094 15.355316-7.943357 2.421631.424766 4.9805.067107 8.153443.067107-5.887024 8.795581-11.443543 17.327873-17.266724 25.674122-2.071869 2.969562-2.308899 4.750744.176972 8.057979 5.875732 7.817154 10.851593 16.315823 16.069152 24.615715.609131.968956.450653 2.420479.222107 3.650109zM322.829926 4.000142c1.379821.940858 2.911865 1.798897 3.046783 2.838298.361084 2.781713.123047 5.641203.123047 8.866856H299.34848v12.006757h23.306671v12.005003h-23.372802v25.943863h-15.94635V4.000018c12.847961 0 25.928558 0 39.493927.000124zM222.239777 14.639288c-1.781876-3.633411-3.354264-6.947073-5.106186-10.639068 5.280777 0 10.219024-.190864 15.125183.121913 1.38504.088299 3.246933 1.344295 3.914612 2.588297 3.479873 6.483767 6.645034 13.136465 10.43309 20.764099 5.79834-7.342481 9.22113-15.294011 13.162018-23.341698h17.147827c-4.277252 7.823475-8.347687 15.497388-12.644226 23.042565-2.621979 4.604528-5.675904 8.961933-8.347122 13.540413-.678177 1.162372-.867997 2.742016-.885697 4.134964C254.952621 51.668133 255 58.487198 255 65.652687h-16c0-4.464569-.390259-9.252369.092911-13.95034.697189-6.779095-1.649384-12.217221-5.390946-17.670017-4.166748-6.072417-7.536178-12.691931-11.462188-19.393042zM350 25.000143v28.823034h26.713379v11.893818h-42.427673V4.288737H350v20.711406zM400 16.014071v49.700498h-14.717651V4.284397H400v11.729674z"/><path d="M123.288177 51.283943c-8.846443 6.287041-18.731697 2.863121-22.589614-6.941826-4.453415-11.318367.170753-22.726448 6.119026-26.695297 7.880981-5.258405 18.418701-.231695 21.270454 7.263226 3.287155 8.639267 2.540924 16.70285-2.217788 24.47586-.452981.739914-1.507203 1.111744-2.582078 1.898037z"/></svg>