<svg class="icon" xmlns="http://www.w3.org/2000/svg" viewBox="0 0 28 28" title="Pause Preview">
    <path
        d="M12.5041016,24.9455078 C19.3341797,24.9455078 24.9455078,19.3341797 24.9455078,12.5041016 C24.9455078,5.66132812 19.3341797,0.05 12.4914062,0.05 C5.66132812,0.05 0.05,5.66132812 0.05,12.5041016 C0.05,19.3341797 5.66132812,24.9455078 12.5041016,24.9455078 Z M12.5041016,23.9806641 C6.15644531,23.9806641 1.01484375,18.8390625 1.01484375,12.5041016 C1.01484375,6.16914062 6.15644531,1.01484375 12.4914062,1.01484375 C18.8390625,1.01484375 23.9806641,6.16914062 23.9806641,12.5041016 C23.9806641,18.8390625 18.8390625,23.9806641 12.5041016,23.9806641 Z M10.3458984,17.2775391 C10.8664062,17.2775391 11.1076172,16.9855469 11.1076172,16.5666016 L11.1076172,8.41621094 C11.1076172,7.99726562 10.8664062,7.70527344 10.3458984,7.70527344 L9.05097656,7.70527344 C8.54316406,7.70527344 8.28925781,7.99726562 8.28925781,8.41621094 L8.28925781,16.5666016 C8.28925781,16.9855469 8.54316406,17.2775391 9.05097656,17.2775391 L10.3458984,17.2775391 Z M15.9318359,17.2775391 C16.4396484,17.2775391 16.6935547,16.9855469 16.6935547,16.5666016 L16.6935547,8.41621094 C16.6935547,7.99726562 16.4396484,7.70527344 15.9318359,7.70527344 L14.6496094,7.70527344 C14.1291016,7.70527344 13.8878906,7.99726562 13.8878906,8.41621094 L13.8878906,16.5666016 C13.8878906,16.9855469 14.1291016,17.2775391 14.6496094,17.2775391 L15.9318359,17.2775391 Z"
        transform="translate(2 2)"></path>
</svg>