<svg class="icon" xmlns="http://www.w3.org/2000/svg" viewBox="0 0 28 28" title="Unmute Preview">
    <path
        d="M12.5041016,24.9455078 C19.3341797,24.9455078 24.9455078,19.3341797 24.9455078,12.5041016 C24.9455078,5.66132812 19.3341797,0.05 12.4914062,0.05 C5.66132812,0.05 0.05,5.66132812 0.05,12.5041016 C0.05,19.3341797 5.66132812,24.9455078 12.5041016,24.9455078 Z M12.5041016,23.9806641 C6.15644531,23.9806641 1.01484375,18.8390625 1.01484375,12.5041016 C1.01484375,6.16914062 6.15644531,1.01484375 12.4914062,1.01484375 C18.8390625,1.01484375 23.9806641,6.16914062 23.9806641,12.5041016 C23.9806641,18.8390625 18.8390625,23.9806641 12.5041016,23.9806641 Z M19.4611328,19.4484375 C19.6134766,19.2833984 19.6134766,19.0548828 19.4611328,18.9025391 L6.06757812,5.49628906 C5.91523437,5.34394531 5.67402344,5.34394531 5.52167969,5.49628906 C5.35664062,5.64863281 5.36933594,5.88984375 5.52167969,6.02949219 L18.9279297,19.4484375 C19.0675781,19.6007812 19.3214844,19.6134766 19.4611328,19.4484375 Z M15.1828125,13.7101562 L15.1828125,7.2609375 C15.1828125,6.96894531 15.0177734,6.72773437 14.7130859,6.72773437 C14.4845703,6.72773437 14.3322266,6.8546875 14.1544922,7.00703125 L11.2726562,9.8 L15.1828125,13.7101562 Z M14.7130859,18.2169922 C14.9669922,18.2169922 15.1066406,18.0392578 15.1320312,17.7980469 L15.1574219,16.4777344 L8.83515625,10.1935547 L8.45429687,10.1935547 C7.971875,10.2316406 7.565625,10.6632812 7.565625,11.1837891 L7.565625,13.8244141 C7.565625,14.4591797 8.04804687,14.9416016 8.65742187,14.9416016 L10.815625,14.9416016 C10.9171875,14.9416016 10.9933594,14.9669922 11.0695312,15.0304687 L14.1544922,17.9630859 C14.3195312,18.1027344 14.4972656,18.2169922 14.7130859,18.2169922 Z"
        transform="translate(2 2)"></path>
</svg>